<?xml version="1.0" encoding="UTF-8"?>
<svg id="Capa_1" xmlns="http://www.w3.org/2000/svg" width="1059" height="296" version="1.1" viewBox="0 0 1059 296">
  <!-- Generator: Adobe Illustrator 29.6.0, SVG Export Plug-In . SVG Version: 2.1.1 Build 207)  -->
  <defs>
    <style>
      .st0 {
        fill: #fff;
      }
    </style>
  </defs>
  <path class="st0" d="M355.7,41.9h-23.5c-3.8.2-7,2.7-8.7,5.9h0c-.2.3-41.2,89-41.2,89h34.7l6.9-15.1h33.2l4.6,10.2c2.2,3.9,5.2,4.9,9.2,4.9h28.4l-43.8-94.9ZM334.4,96.5l6.3-21.2,6.2,21.2h-12.6Z"/>
  <path class="st0" d="M399.5,127.9l10.4-17.4c9,5.5,18.7,8.2,27.2,8.2s4.4-.8,4.4-2.4v-.3c0-1.5-1.3-2.3-8.8-4.3-18.6-4.6-30-9.6-30-24.8v-.3c0-16.2,12.9-25.2,32.1-25.2s24,3.1,33,8.5l-9.7,18.2c-7.9-4.3-17.1-6.9-23.4-6.9s-4.3.8-4.3,2.3v.3c0,1.5,1.6,2.6,9,4.3,18.7,4.7,29.8,9.7,29.8,24.8v.3c0,16.2-11.9,25.3-31.9,25.3s-27.1-3.6-37.7-10.6"/>
  <rect class="st0" x="643.1" y="63.2" width="30.6" height="73.5"/>
  <path class="st0" d="M658.4,28.4h0c8.4,0,15.3,6.8,15.3,15.3s-6.8,15.3-15.3,15.3-15.3-6.8-15.3-15.3,6.8-15.3,15.3-15.3"/>
  <path class="st0" d="M869.7,28.4h0c8.4,0,15.3,6.8,15.3,15.3s-6.8,15.3-15.3,15.3-15.3-6.8-15.3-15.3,6.8-15.3,15.3-15.3"/>
  <rect class="st0" x="854.5" y="63.2" width="30.6" height="73.5"/>
  <path class="st0" d="M977.4,62.5h30.6v10.2c4.7-6.1,11.1-12,21.3-12,15.6,0,25.2,10.1,25.2,26.8v49.3h-30.6v-39.5c0-6.3-3.6-10-8.4-10s-7.6,3.6-7.6,10v39.5h-30.6V62.5Z"/>
  <path class="st0" d="M553.9,100c0,21.3-17.3,38.5-38.5,38.5s-38.5-17.2-38.5-38.5,17.3-38.5,38.5-38.5,38.5,17.2,38.5,38.5M525.3,90c-5.5-5.5-14.5-5.5-20,0-5.5,5.5-5.5,14.5,0,20,5.5,5.5,14.4,5.5,20,0,5.5-5.5,5.5-14.5,0-20"/>
  <path class="st0" d="M941.1,109.9c-5.5,5.4-14.3,5.4-19.8,0-5.5-5.5-5.5-14.3,0-19.8,5.4-5.5,14.3-5.5,19.8,0,5.5,5.5,5.5,14.3,0,19.8M931.2,61.5c-21.3,0-38.5,17.2-38.5,38.6s17.3,38.5,38.5,38.5,38.5-17.2,38.5-38.5-17.3-38.6-38.5-38.6"/>
  <polygon class="st0" points="932.3 28.4 963.5 36.4 940.2 55.5 918.8 55.5 932.3 28.4"/>
  <path class="st0" d="M729.9,110.1c-5.5,5.5-14.5,5.5-20,0-5.5-5.5-5.5-14.5,0-20,5.5-5.5,14.5-5.5,20,0,5.5,5.5,5.5,14.5,0,20M740,62.6v4.7c-5.9-3.6-12.7-5.7-20.1-5.7-21.3,0-38.5,17.3-38.5,38.5s17.3,38.5,38.5,38.5,14.3-2.1,20.1-5.7v1c0,2.1,1.7,3.8,3.8,3.8h21.4V62.6h-25.2Z"/>
  <path class="st0" d="M613.7,106c-.7,1.4-1.6,2.8-2.8,4-5.6,5.6-14.7,5.6-20.3,0-5.6-5.6-5.6-14.7,0-20.3,5.6-5.6,14.7-5.6,20.3,0,1.2,1.2,2.2,2.6,2.8,4.1l21.2-12c-5.8-12-17-20.3-33.3-20.3-24.1,0-40.2,17.9-40.2,38.5v.3c0,20.5,16.3,38.3,38.7,38.3s28.7-7.7,35.3-20.1l-21.8-12.4Z"/>
  <path class="st0" d="M825,106c-.7,1.4-1.6,2.8-2.8,4-5.6,5.6-14.7,5.6-20.3,0-5.6-5.6-5.6-14.7,0-20.3,5.6-5.6,14.7-5.6,20.3,0,1.2,1.2,2.2,2.6,2.8,4.1l21.2-12c-5.8-12-17-20.3-33.3-20.3-24.1,0-40.2,17.9-40.2,38.5v.3c0,20.5,16.3,38.3,38.7,38.3s28.7-7.7,35.3-20.1l-21.8-12.4Z"/>
  <path class="st0" d="M46.5,141.2c6.4-1.8,13.2-.9,19,2.5,1.3.7,2.4,1.6,3.5,2.6-1.5-2.5-3.5-4.6-5.9-6.3l-14.7-10.2c-.6-.4-2.4-1.7-1.8-4.6.4-1.9,1.6-3.1,3.5-3.3l17.8-2.8c11.5-1.8,19.4-12.7,17.6-24.3-1.6-10.5-10.6-18.1-20.8-18.1s-2.1,0-3.2.2l-17.8,2.8c-18.9,2.9-33.9,17.1-38.2,36.1-4.3,18.9,3.2,38.3,19,49.3l6.7-11.9c3.3-5.9,8.7-10.1,15.2-11.9"/>
  <path class="st0" d="M89.9,196.3c2-.8,4-1.2,6-1.5-4.6-2-9.6-2.4-14.4-.9l-14.2,4.4c-1.8.6-3.4.1-4.6-1.5-1.8-2.3-.7-4.3-.4-4.9l8.9-15.7c5.8-10.2,2.3-23.3-7.8-29.2-3.2-1.9-6.8-2.8-10.4-2.8s-3.7.2-5.5.7c-5.4,1.5-10,5-12.7,10l-8.9,15.7c-9.5,16.9-8,37.6,4,52.8,8.9,11.3,22,17.7,36.1,17.7s9.2-.7,13.7-2.1l-3.9-10c-5.1-13,1.3-27.8,14.1-32.9"/>
  <path class="st0" d="M143.3,225.4c-3.1-6-3.8-12.9-1.8-19.3.4-1.4,1-2.7,1.6-4-2,2-3.5,4.4-4.6,7.1l-6.6,16.9c-.3.7-1,2.8-4,2.8s-3.7-2.1-4-2.7l-5.4-14c-2.1-5.3-6-9.5-11.2-11.8-2.7-1.2-5.5-1.8-8.4-1.8s-5.2.5-7.7,1.5c-10.8,4.3-16.1,16.8-11.8,27.7l5.4,14c7,18.1,23.9,29.8,43.1,29.8s36.1-11.7,43.1-29.8l-13-4c-6.4-2-11.6-6.4-14.8-12.4"/>
  <path class="st0" d="M204.8,183c-8.3,0-16-4.1-20.6-11-.8-1.2-1.4-2.5-2-3.8.3,2.8,1.2,5.5,2.6,8.1l8.9,15.8c.4.6,1.5,2.6-.4,4.9-1.8,2.3-3.8,1.7-4.5,1.5l-17.2-5.3c-2-.6-4.1-1-6.2-1-3.4,0-6.7.8-9.8,2.5-5,2.7-8.6,7.2-10.2,12.6-1.6,5.5-1.1,11.2,1.5,16.3,2.6,5,7,8.7,12.4,10.4l17.1,5.3c4.5,1.4,9.1,2.1,13.7,2.1,14.1,0,27.2-6.5,36.1-17.8,11.9-15.2,13.5-35.9,4-52.8l-11.2,7.8c-4.2,2.9-9.1,4.4-14.1,4.4"/>
  <path class="st0" d="M250.4,115.7c-4.3-19-19.2-33.1-38.1-36l-1,13.8c-.9,13.2-11.9,23.5-24.9,23.5s-1.2,0-1.8,0c-1.4-.1-2.8-.4-4.2-.7,2.3,1.4,4.9,2.4,7.8,2.9l17.7,2.7c1.9.3,3.1,1.4,3.5,3.3.7,2.9-1.2,4.1-1.8,4.6l-14.8,10.3c-9.6,6.7-12,20-5.5,29.7,3.9,5.8,10.4,9.3,17.4,9.3s8.3-1.3,11.9-3.7l14.8-10.3c15.8-11,23.2-30.3,19-49.3"/>
  <path class="st0" d="M137.5,48.6l-12.4-11.6c-14.1-13.2-34.3-16.3-51.5-7.8-17.2,8.4-27.5,26.4-26.1,45.8l13.6-2.1c1.3-.2,2.5-.3,3.7-.3,12.2,0,22.9,9,24.7,21.5.2,1.3.3,2.6.3,3.8.7-2.5,1-5.1.8-7.8l-1.3-18.3c0-.7-.2-2.9,2.4-4.2,2.6-1.3,4.2.2,4.7.7l12.4,11.6c4.1,3.9,9.5,5.9,15.1,5.7,5.6-.2,10.8-2.7,14.6-6.8,7.9-8.6,7.3-22.2-1.2-30.2"/>
  <path class="st0" d="M182.5,29.2c-17.2-8.4-37.5-5.4-51.5,7.8l9.2,8.7c10.1,9.5,10.7,25.6,1.4,35.9-1.2,1.3-2.5,2.4-3.9,3.4,3.4-.8,6.7-2.4,9.4-5l12.4-11.6c.4-.4,1.3-1.2,2.8-1.2s1.2.1,2,.5c2.6,1.3,2.5,3.5,2.4,4.2l-1.3,18.2c-.8,11.7,7.9,22,19.4,22.9.5,0,1,0,1.5,0,11,0,20.1-8.7,20.9-19.8l1.3-18.2c1.4-19.4-8.9-37.4-26.1-45.8"/>
  <path class="st0" d="M136.1,156.1c-4.4,4.4-11.6,4.4-16.1,0-4.5-4.4-4.5-11.7,0-16.1,4.4-4.5,11.6-4.5,16.1,0,4.4,4.4,4.4,11.6,0,16.1M128,113.9c-18.8,0-34.1,15.3-34.1,34.1s15.3,34.1,34.1,34.1,34.1-15.3,34.1-34.1-15.3-34.1-34.1-34.1"/>
  <path class="st0" d="M327.6,159.2h-45.1v94.8h22.5c5.5,0,9.9-4.3,10.3-9.7v-15h11c27.5,0,44.6-13.5,44.6-35.3s-16.6-34.7-43.3-34.7M325.6,203.9h-10.4v-17.5h10.2c5.7,0,12.5,1.5,12.5,9s-4.6,8.6-12.3,8.6"/>
  <path class="st0" d="M419.9,227.4c-5.6,5.6-14.6,5.6-20.2,0-5.6-5.6-5.6-14.6,0-20.2,5.6-5.6,14.6-5.6,20.2,0,5.6,5.6,5.6,14.6,0,20.2M430.1,179.3v4.7c-5.9-3.6-12.9-5.7-20.3-5.7-21.5,0-39,17.4-39,39s17.4,38.9,39,38.9,14.4-2.1,20.3-5.7v1.1c0,2.1,1.7,3.8,3.8,3.8h21.6v-76.1h-25.4Z"/>
  <path class="st0" d="M471.9,227.5v-24.3h-8.7v-23.8h8.7v-20.1h30.9v20.1h17.2v23.8h-17.2v17.5c0,5.6,2.6,7.6,7.5,7.6s6-.8,9.7-2.5v23.8c-5.2,2.7-12.4,4.4-20,4.4-18.4,0-28.1-8.4-28.1-26.6"/>
  <path class="st0" d="M576.7,227.4c-5.6,5.6-14.6,5.6-20.2,0-5.6-5.6-5.6-14.6,0-20.2,5.6-5.6,14.6-5.6,20.2,0,5.6,5.6,5.6,14.6,0,20.2M587,179.3v4.7c-5.9-3.6-12.9-5.7-20.3-5.7-21.5,0-39,17.4-39,39s17.5,38.9,39,38.9,14.4-2.1,20.3-5.7v1.1c0,2.1,1.7,3.8,3.8,3.8h21.6v-76.1h-25.4Z"/>
  <polygon class="st0" points="620.1 234.6 650.2 203.7 621.3 203.7 621.3 179.4 692.8 179.4 692.8 198.8 662.5 229.7 692.8 229.7 692.8 254 620.1 254 620.1 234.6"/>
</svg>